<svg xmlns="http://www.w3.org/2000/svg" xmlns:xlink="http://www.w3.org/1999/xlink" width="150" zoomAndPan="magnify" viewBox="0 0 112.5 112.499997" height="150" preserveAspectRatio="xMidYMid meet" version="1.0"><defs><clipPath id="a90d1bf5ef"><path d="M 53 1.0625 L 59 1.0625 L 59 20 L 53 20 Z M 53 1.0625 " clip-rule="nonzero"/></clipPath><clipPath id="3cf137957a"><path d="M 4.5625 50 L 23 50 L 23 55 L 4.5625 55 Z M 4.5625 50 " clip-rule="nonzero"/></clipPath><clipPath id="1b88b9d32e"><path d="M 89 50 L 107.605469 50 L 107.605469 55 L 89 55 Z M 89 50 " clip-rule="nonzero"/></clipPath><clipPath id="2231761238"><path d="M 49 106 L 63 106 L 63 110.824219 L 49 110.824219 Z M 49 106 " clip-rule="nonzero"/></clipPath><clipPath id="84ec4fa242"><path d="M 40.730469 61.925781 L 71.34375 61.925781 L 71.34375 70.886719 L 40.730469 70.886719 Z M 40.730469 61.925781 " clip-rule="nonzero"/></clipPath></defs><g clip-path="url(#a90d1bf5ef)"><path fill="#009cff" d="M 55.996094 19.476562 C 57.257812 19.476562 58.28125 18.453125 58.28125 17.191406 L 58.28125 3.351562 C 58.28125 2.089844 57.257812 1.070312 55.996094 1.070312 C 54.734375 1.070312 53.714844 2.089844 53.714844 3.351562 L 53.714844 17.191406 C 53.714844 18.453125 54.734375 19.476562 55.996094 19.476562 " fill-opacity="1" fill-rule="nonzero"/></g><path fill="#009cff" d="M 29.414062 29.148438 C 29.859375 29.59375 30.445312 29.816406 31.027344 29.816406 C 31.613281 29.816406 32.199219 29.59375 32.644531 29.148438 C 33.535156 28.257812 33.535156 26.8125 32.644531 25.917969 L 22.859375 16.132812 C 21.96875 15.242188 20.519531 15.242188 19.628906 16.132812 C 18.734375 17.027344 18.734375 18.472656 19.628906 19.363281 L 29.414062 29.148438 " fill-opacity="1" fill-rule="nonzero"/><g clip-path="url(#3cf137957a)"><path fill="#009cff" d="M 22.96875 52.503906 C 22.96875 51.242188 21.945312 50.21875 20.683594 50.21875 L 6.847656 50.21875 C 5.585938 50.21875 4.5625 51.242188 4.5625 52.503906 C 4.5625 53.765625 5.585938 54.789062 6.847656 54.789062 L 20.683594 54.789062 C 21.945312 54.789062 22.96875 53.765625 22.96875 52.503906 " fill-opacity="1" fill-rule="nonzero"/></g><path fill="#009cff" d="M 29.414062 75.859375 L 19.628906 85.640625 C 18.734375 86.535156 18.734375 87.980469 19.628906 88.875 C 20.074219 89.320312 20.660156 89.542969 21.242188 89.542969 C 21.828125 89.542969 22.414062 89.320312 22.859375 88.875 L 32.644531 79.089844 C 33.535156 78.195312 33.535156 76.75 32.644531 75.859375 C 31.75 74.964844 30.304688 74.964844 29.414062 75.859375 " fill-opacity="1" fill-rule="nonzero"/><path fill="#009cff" d="M 82.582031 75.859375 C 81.691406 74.964844 80.246094 74.964844 79.351562 75.859375 C 78.460938 76.75 78.460938 78.195312 79.351562 79.089844 L 89.136719 88.875 C 89.582031 89.320312 90.167969 89.542969 90.753906 89.542969 C 91.335938 89.542969 91.921875 89.320312 92.367188 88.875 C 93.257812 87.980469 93.257812 86.535156 92.367188 85.640625 L 82.582031 75.859375 " fill-opacity="1" fill-rule="nonzero"/><g clip-path="url(#1b88b9d32e)"><path fill="#009cff" d="M 105.148438 50.21875 L 91.308594 50.21875 C 90.046875 50.21875 89.027344 51.242188 89.027344 52.503906 C 89.027344 53.765625 90.046875 54.789062 91.308594 54.789062 L 105.148438 54.789062 C 106.410156 54.789062 107.433594 53.765625 107.433594 52.503906 C 107.433594 51.242188 106.410156 50.21875 105.148438 50.21875 " fill-opacity="1" fill-rule="nonzero"/></g><path fill="#009cff" d="M 80.96875 29.816406 C 81.550781 29.816406 82.136719 29.59375 82.582031 29.148438 L 92.367188 19.363281 C 93.257812 18.472656 93.257812 17.027344 92.367188 16.132812 C 91.476562 15.242188 90.027344 15.242188 89.136719 16.132812 L 79.351562 25.917969 C 78.460938 26.8125 78.460938 28.257812 79.351562 29.148438 C 79.796875 29.59375 80.382812 29.816406 80.96875 29.816406 " fill-opacity="1" fill-rule="nonzero"/><path fill="#009cff" d="M 55.996094 36.054688 C 51.550781 36.054688 47.371094 37.785156 44.230469 40.929688 C 41.085938 44.074219 39.351562 48.253906 39.351562 52.699219 C 39.351562 53.960938 38.332031 54.984375 37.070312 54.984375 C 35.808594 54.984375 34.785156 53.960938 34.785156 52.699219 C 34.785156 49.835938 35.34375 47.058594 36.453125 44.441406 C 37.519531 41.914062 39.050781 39.648438 40.996094 37.699219 C 42.945312 35.75 45.214844 34.222656 47.738281 33.152344 C 50.355469 32.046875 53.136719 31.484375 55.996094 31.484375 C 57.257812 31.484375 58.28125 32.507812 58.28125 33.769531 C 58.28125 35.03125 57.257812 36.054688 55.996094 36.054688 Z M 56.425781 24.371094 C 41.128906 24.136719 28.46875 36.503906 28.359375 51.804688 C 28.3125 58.472656 30.628906 64.601562 34.519531 69.398438 C 37.972656 73.65625 40.480469 78.605469 42.023438 83.867188 C 43.472656 88.8125 45.050781 93.683594 50.203125 93.683594 L 61.792969 93.683594 C 66.945312 93.683594 68.523438 88.8125 69.972656 83.867188 L 70.015625 83.722656 C 71.5625 78.441406 74.167969 73.539062 77.605469 69.238281 C 81.378906 64.515625 83.636719 58.523438 83.636719 52.003906 C 83.636719 36.882812 71.492188 24.597656 56.425781 24.371094 " fill-opacity="1" fill-rule="nonzero"/><path fill="#808080" d="M 45.878906 95.714844 L 66.113281 95.714844 C 67.015625 95.714844 67.746094 94.984375 67.746094 94.082031 C 67.746094 93.179688 67.015625 92.449219 66.113281 92.449219 L 45.878906 92.449219 C 44.980469 92.449219 44.25 93.179688 44.25 94.082031 C 44.25 94.984375 44.980469 95.714844 45.878906 95.714844 " fill-opacity="1" fill-rule="nonzero"/><path fill="#808080" d="M 66.113281 97.019531 L 45.878906 97.019531 C 44.980469 97.019531 44.25 97.75 44.25 98.652344 C 44.25 99.550781 44.980469 100.28125 45.878906 100.28125 L 66.113281 100.28125 C 67.015625 100.28125 67.746094 99.550781 67.746094 98.652344 C 67.746094 97.75 67.015625 97.019531 66.113281 97.019531 " fill-opacity="1" fill-rule="nonzero"/><path fill="#808080" d="M 66.113281 101.589844 L 45.878906 101.589844 C 44.980469 101.589844 44.25 102.320312 44.25 103.21875 C 44.25 104.121094 44.980469 104.851562 45.878906 104.851562 L 66.113281 104.851562 C 67.015625 104.851562 67.746094 104.121094 67.746094 103.21875 C 67.746094 102.320312 67.015625 101.589844 66.113281 101.589844 " fill-opacity="1" fill-rule="nonzero"/><g clip-path="url(#2231761238)"><path fill="#808080" d="M 55.996094 110.921875 C 59.449219 110.921875 62.246094 108.820312 62.246094 106.222656 L 49.75 106.222656 C 49.75 108.820312 52.546875 110.921875 55.996094 110.921875 " fill-opacity="1" fill-rule="nonzero"/></g><g clip-path="url(#84ec4fa242)"><path fill="#000000" d="M 70.359375 66.902344 C 68.195312 66.902344 66.421875 65.113281 66.421875 62.929688 C 66.421875 62.332031 66.027344 61.933594 65.4375 61.933594 C 64.847656 61.933594 64.453125 62.332031 64.453125 62.929688 C 64.453125 64.121094 64.847656 65.210938 65.4375 66.105469 C 63.667969 67.199219 60.121094 68.886719 54.609375 68.886719 C 46.539062 68.886719 42.601562 65.210938 42.503906 65.210938 C 42.109375 64.816406 41.519531 64.816406 41.125 65.210938 C 40.730469 65.609375 40.730469 66.207031 41.125 66.601562 C 41.320312 66.800781 45.652344 70.875 54.609375 70.875 C 60.8125 70.875 64.847656 68.886719 66.71875 67.597656 C 67.703125 68.390625 68.980469 68.886719 70.359375 68.886719 C 70.949219 68.886719 71.34375 68.492188 71.34375 67.894531 C 71.34375 67.296875 70.949219 66.902344 70.359375 66.902344 Z M 70.359375 66.902344 " fill-opacity="1" fill-rule="nonzero"/></g></svg>